<svg width="53" height="54" viewBox="0 0 53 54" fill="none" xmlns="http://www.w3.org/2000/svg">
<path d="M26.5 36.2231C28.8427 36.2231 31.0895 35.2924 32.7461 33.6358C34.4027 31.9793 35.3333 29.7325 35.3333 27.3897C35.3333 25.047 34.4027 22.8002 32.7461 21.1436C31.0895 19.487 28.8427 18.5564 26.5 18.5564V36.2231Z" fill="white"/>
<path fill-rule="evenodd" clip-rule="evenodd" d="M26.5003 5.3064C14.3037 5.3064 4.41699 15.1931 4.41699 27.3897C4.41699 39.5864 14.3037 49.4731 26.5003 49.4731C38.6969 49.4731 48.5837 39.5864 48.5837 27.3897C48.5837 15.1931 38.6969 5.3064 26.5003 5.3064ZM26.5003 9.72306V18.5564C24.1576 18.5564 21.9108 19.487 20.2542 21.1436C18.5976 22.8002 17.667 25.047 17.667 27.3897C17.667 29.7325 18.5976 31.9793 20.2542 33.6358C21.9108 35.2924 24.1576 36.2231 26.5003 36.2231V45.0564C31.1858 45.0564 35.6794 43.1951 38.9925 39.882C42.3057 36.5688 44.167 32.0752 44.167 27.3897C44.167 22.7042 42.3057 18.2107 38.9925 14.8975C35.6794 11.5844 31.1858 9.72306 26.5003 9.72306Z" fill="white"/>
</svg>
