<svg width="50" height="36" viewBox="0 0 50 36" fill="none" xmlns="http://www.w3.org/2000/svg">
<g filter="url(#filter0_d_548_3552)">
<path d="M12.2503 9.5H30.667L34.917 15.1667H37.7503C39.3228 15.1667 40.5837 16.4275 40.5837 18V22.25H37.7503C37.7503 23.3772 37.3026 24.4582 36.5055 25.2552C35.7085 26.0522 34.6275 26.5 33.5003 26.5C32.3732 26.5 31.2922 26.0522 30.4951 25.2552C29.6981 24.4582 29.2503 23.3772 29.2503 22.25H20.7503C20.7503 23.3772 20.3026 24.4582 19.5055 25.2552C18.7085 26.0522 17.6275 26.5 16.5003 26.5C15.3732 26.5 14.2922 26.0522 13.4951 25.2552C12.6981 24.4582 12.2503 23.3772 12.2503 22.25H9.41699V12.3333C9.41699 10.7608 10.6778 9.5 12.2503 9.5ZM11.542 11.625V15.1667H22.8753V11.625H11.542ZM25.0003 11.625V15.1667H32.282L29.6045 11.625H25.0003ZM16.5003 20.125C15.9367 20.125 15.3962 20.3489 14.9977 20.7474C14.5992 21.1459 14.3753 21.6864 14.3753 22.25C14.3753 22.8136 14.5992 23.3541 14.9977 23.7526C15.3962 24.1511 15.9367 24.375 16.5003 24.375C17.0639 24.375 17.6044 24.1511 18.0029 23.7526C18.4014 23.3541 18.6253 22.8136 18.6253 22.25C18.6253 21.6864 18.4014 21.1459 18.0029 20.7474C17.6044 20.3489 17.0639 20.125 16.5003 20.125ZM33.5003 20.125C32.9367 20.125 32.3962 20.3489 31.9977 20.7474C31.5992 21.1459 31.3753 21.6864 31.3753 22.25C31.3753 22.8136 31.5992 23.3541 31.9977 23.7526C32.3962 24.1511 32.9367 24.375 33.5003 24.375C34.0639 24.375 34.6044 24.1511 35.0029 23.7526C35.4014 23.3541 35.6253 22.8136 35.6253 22.25C35.6253 21.6864 35.4014 21.1459 35.0029 20.7474C34.6044 20.3489 34.0639 20.125 33.5003 20.125Z" fill="#19DA14"/>
</g>
<defs>
<filter id="filter0_d_548_3552" x="0.416992" y="0.5" width="49.167" height="35" filterUnits="userSpaceOnUse" color-interpolation-filters="sRGB">
<feFlood flood-opacity="0" result="BackgroundImageFix"/>
<feColorMatrix in="SourceAlpha" type="matrix" values="0 0 0 0 0 0 0 0 0 0 0 0 0 0 0 0 0 0 127 0" result="hardAlpha"/>
<feOffset/>
<feGaussianBlur stdDeviation="4.5"/>
<feComposite in2="hardAlpha" operator="out"/>
<feColorMatrix type="matrix" values="0 0 0 0 1 0 0 0 0 1 0 0 0 0 1 0 0 0 1 0"/>
<feBlend mode="normal" in2="BackgroundImageFix" result="effect1_dropShadow_548_3552"/>
<feBlend mode="normal" in="SourceGraphic" in2="effect1_dropShadow_548_3552" result="shape"/>
</filter>
</defs>
</svg>
